<!DOCTYPE svg PUBLIC "-//W3C//DTD SVG 20010904//EN" "http://www.w3.org/TR/2001/REC-SVG-20010904/DTD/svg10.dtd">
<svg version="1.0" xmlns="http://www.w3.org/2000/svg" width="58px" height="36px" viewBox="0 0 580 360" preserveAspectRatio="xMidYMid meet">
<g id="layer101" fill="#000000" stroke="none">
 <path d="M112 335 c-12 -15 -30 -25 -45 -25 -17 0 -28 -7 -32 -20 -3 -11 -13 -20 -21 -20 -8 0 -14 -7 -14 -15 0 -12 13 -15 55 -15 31 0 55 4 55 10 0 7 6 7 19 0 30 -15 56 -12 76 10 15 17 31 20 106 20 l88 0 3 -35 c4 -43 21 -50 28 -13 4 22 8 25 20 18 24 -16 56 -11 75 10 21 23 35 26 35 6 0 -7 -9 -16 -20 -19 -26 -7 -28 -57 -2 -57 14 0 15 -2 2 -10 -20 -13 -110 -13 -110 0 0 6 -7 10 -15 10 -12 0 -15 -16 -15 -85 l0 -85 -170 0 -170 0 0 85 c0 70 -3 85 -15 85 -13 0 -15 -15 -13 -92 l3 -93 198 -3 c171 -2 197 0 197 13 0 11 11 15 38 15 53 0 65 12 68 65 2 34 9 51 24 62 17 12 20 25 20 84 0 52 -3 69 -14 69 -7 0 -21 11 -30 25 -12 19 -25 25 -51 25 -24 0 -39 -7 -53 -25 -19 -23 -26 -25 -110 -25 -85 0 -91 1 -106 25 -12 19 -25 25 -51 25 -24 0 -39 -7 -53 -25z m366 -6 c-23 -13 -23 -38 -2 -46 11 -4 22 1 30 12 8 10 14 14 14 8 0 -17 -28 -36 -45 -29 -32 12 -25 67 9 66 6 0 3 -5 -6 -11z m-332 -21 c-1 -17 5 -23 19 -23 14 0 20 6 19 23 0 15 3 19 9 13 13 -13 2 -40 -19 -48 -20 -8 -49 21 -41 41 9 22 14 20 13 -6z m362 -180 c-2 -19 -10 -24 -40 -26 -35 -3 -38 -1 -38 22 0 24 4 26 41 26 36 0 40 -2 37 -22z m-20 -65 c-10 -2 -28 -2 -40 0 -13 2 -5 4 17 4 22 1 32 -1 23 -4z"/>
 <path d="M230 255 c0 -12 16 -15 80 -15 64 0 80 3 80 15 0 12 -16 15 -80 15 -64 0 -80 -3 -80 -15z"/>
 <path d="M15 220 c-10 -16 17 -21 80 -18 36 2 60 8 63 16 5 15 -133 17 -143 2z"/>
 <path d="M182 167 c-12 -13 -22 -29 -22 -35 0 -19 25 -14 45 8 19 21 19 20 60 -20 43 -42 55 -48 55 -28 0 18 -82 98 -100 98 -9 0 -26 -10 -38 -23z"/>
 </g>

</svg>