<!DOCTYPE svg PUBLIC "-//W3C//DTD SVG 20010904//EN" "http://www.w3.org/TR/2001/REC-SVG-20010904/DTD/svg10.dtd">
<svg version="1.0" xmlns="http://www.w3.org/2000/svg" width="58px" height="38px" viewBox="0 0 580 380" preserveAspectRatio="xMidYMid meet">
<g id="layer101" fill="#000000" stroke="none">
 <path d="M12 368 c-17 -17 -17 -339 0 -356 17 -17 539 -17 556 0 17 17 17 339 0 356 -17 17 -539 17 -556 0z m536 -110 l3 -88 -261 0 -260 0 0 83 c0 46 3 87 7 91 4 3 119 5 257 4 l251 -3 3 -87z m2 -138 c0 -19 -7 -20 -260 -20 -253 0 -260 1 -260 20 0 19 7 20 260 20 253 0 260 -1 260 -20z m-2 -67 c-3 -17 -23 -18 -258 -18 -235 0 -255 1 -258 18 -3 16 14 17 258 17 244 0 261 -1 258 -17z"/>
 <path d="M70 295 c0 -13 14 -15 87 -13 58 2 88 7 91 16 3 9 -19 12 -87 12 -75 0 -91 -3 -91 -15z"/>
 <path d="M414 297 c-3 -9 -4 -30 -2 -49 3 -32 4 -33 48 -33 l45 0 0 45 0 45 -43 3 c-30 2 -44 -1 -48 -11z m64 -34 c-5 -26 -38 -29 -38 -4 0 15 6 21 21 21 14 0 19 -5 17 -17z"/>
 <path d="M77 264 c-4 -4 -7 -14 -7 -21 0 -11 19 -13 88 -11 69 2 87 6 87 18 0 12 -17 16 -80 18 -45 1 -84 0 -88 -4z"/>
 </g>

</svg>