<!DOCTYPE svg PUBLIC "-//W3C//DTD SVG 20010904//EN" "http://www.w3.org/TR/2001/REC-SVG-20010904/DTD/svg10.dtd">
<svg version="1.0" xmlns="http://www.w3.org/2000/svg" width="54px" height="40px" viewBox="0 0 540 400" preserveAspectRatio="xMidYMid meet">
<g id="layer101" fill="#000000" stroke="none">
 <path d="M7 393 c-4 -3 -7 -51 -7 -105 0 -97 1 -100 29 -129 29 -28 32 -29 135 -29 l106 0 0 -65 0 -65 70 0 70 0 0 45 0 45 -55 0 c-48 0 -55 2 -55 20 0 19 7 20 91 20 87 0 92 1 120 30 30 29 30 30 27 132 l-3 103 -261 3 c-143 1 -263 -1 -267 -5z m168 -106 c0 -74 -2 -80 -28 -103 -34 -29 -56 -30 -91 -3 -24 19 -26 26 -26 105 l0 85 73 -3 72 -3 0 -78z m335 -1 c0 -79 -2 -86 -26 -105 -22 -17 -41 -21 -105 -21 l-78 0 -3 42 c-4 59 -28 63 -28 4 l0 -46 -44 0 -45 0 15 28 c8 16 14 57 14 105 l0 77 150 0 150 0 0 -84z m-130 -241 c0 -11 -11 -15 -40 -15 -29 0 -40 4 -40 15 0 11 11 15 40 15 29 0 40 -4 40 -15z"/>
 </g>

</svg>