<!DOCTYPE svg PUBLIC "-//W3C//DTD SVG 20010904//EN" "http://www.w3.org/TR/2001/REC-SVG-20010904/DTD/svg10.dtd">
<svg version="1.0" xmlns="http://www.w3.org/2000/svg" width="54px" height="50px" viewBox="0 0 540 500" preserveAspectRatio="xMidYMid meet">
<g id="layer101" fill="#000000" stroke="none">
 <path d="M179 474 c-20 -54 45 -99 85 -58 19 18 21 55 4 72 -7 7 -27 12 -45 12 -27 0 -35 -5 -44 -26z m61 -25 c0 -5 -7 -9 -15 -9 -15 0 -20 12 -9 23 8 8 24 -1 24 -14z"/>
 <path d="M352 488 c-17 -17 -15 -54 4 -73 38 -37 103 8 85 59 -10 25 -69 34 -89 14z m49 -41 c-13 -13 -26 -3 -16 12 3 6 11 8 17 5 6 -4 6 -10 -1 -17z"/>
 <path d="M131 373 c-5 -10 -21 -79 -36 -153 -34 -175 -31 -167 -65 -179 -30 -10 -42 -41 -16 -41 39 0 77 23 83 51 l5 29 217 2 216 3 3 30 c2 17 -5 68 -16 115 l-18 85 -172 3 c-144 2 -172 5 -172 17 0 13 26 15 165 15 158 0 165 1 165 20 0 19 -7 20 -175 20 -156 0 -175 -2 -184 -17z m344 -105 c2 -13 11 -51 18 -85 l14 -63 -197 0 -198 0 14 68 c8 37 17 75 20 85 5 15 22 17 164 17 157 0 160 0 165 -22z"/>
 <path d="M210 235 c0 -12 18 -15 100 -15 82 0 100 3 100 15 0 12 -18 15 -100 15 -82 0 -100 -3 -100 -15z"/>
 <path d="M207 184 c-4 -4 -7 -13 -7 -21 0 -10 25 -13 111 -13 100 0 110 2 107 18 -3 15 -17 17 -104 20 -55 1 -103 0 -107 -4z"/>
 </g>

</svg>